<?xml version="1.0" encoding="UTF-8"?><svg xmlns="http://www.w3.org/2000/svg" xmlns:xlink="http://www.w3.org/1999/xlink" version="1.1" id="Layer_1" x="0px" y="0px" viewBox="0 0 48 48" xml:space="preserve"><path d="M4 24.128c0 2.921.368 5.022 1.194 6.812a.751.751 0 0 0 1.363-.629c-.443-.96-.736-2.044-.898-3.347a19.862 19.862 0 0 1-1.485-5.461A20.315 20.315 0 0 0 4 24.128z" fill="#C62828"/><path d="M7.516 35.096a.75.75 0 1 0 1.468.308c.221-1.051.331-1.967.375-2.811a20.19 20.19 0 0 1-1.503-1.822c.077 1.25.026 2.588-.34 4.325z" fill="#C62828"/><path d="M36.666 34.475a73.716 73.716 0 0 1-.287 3.951.75.75 0 1 0 1.492.15c.2-2.001.306-3.836.346-5.516-.492.497-1.009.97-1.551 1.415z" fill="#C62828"/><path d="M9.911 37.645a.75.75 0 0 0 1.428.46 31.08 31.08 0 0 0 .817-3.016 20.301 20.301 0 0 1-1.318-1.056c-.188 1.046-.481 2.227-.927 3.612z" fill="#C62828"/><path d="M32.407 41.035a.75.75 0 0 0 .718.965.75.75 0 0 0 .718-.535c.546-1.821.891-3.777 1.093-5.732-.527.345-1.07.667-1.63.962-.198 1.492-.487 2.964-.899 4.34z" fill="#C62828"/><path d="M28.334 42.63a.75.75 0 0 0 1.418.49 35.687 35.687 0 0 0 1.391-5.456c-.533.204-1.074.39-1.628.549a33.593 33.593 0 0 1-1.181 4.417z" fill="#C62828"/><path d="M15.255 41.181a.75.75 0 1 0 1.357.638 25.82 25.82 0 0 0 1.418-3.727c-.482-.151-.95-.333-1.416-.518a23.962 23.962 0 0 1-1.359 3.607z" fill="#C62828"/><path d="M18.183 42.314a.75.75 0 0 0 1.365.621 30.24 30.24 0 0 0 1.543-4.171 20.287 20.287 0 0 1-1.488-.265 28.586 28.586 0 0 1-1.42 3.815z" fill="#C62828"/><path d="M24.907 42.969a.751.751 0 0 0 1.391.562 30.406 30.406 0 0 0 1.495-4.901c-.526.101-1.058.185-1.598.244a28.36 28.36 0 0 1-1.288 4.095z" fill="#C62828"/><path d="M23.112 40.539a.749.749 0 0 0-.949.474l-.667 2a.75.75 0 0 0 1.423.474l.667-2a.749.749 0 0 0-.474-.948z" fill="#C62828"/><path d="M14.536 35.643a.736.736 0 0 0-.848.47c-.013.035-.036.064-.045.102l-.025.105c-.275 1.111-1.18 3.379-1.189 3.402a.75.75 0 0 0 1.392.558c.037-.093.869-2.181 1.204-3.424l.049-.175.034-.145a.75.75 0 0 0-.572-.893z" fill="#C62828"/><path d="M41.571 30.597a.737.737 0 0 0-.778-.721c-.009 0-.017.006-.026.006a.747.747 0 0 0-.695.771c.003.067.003.139.006.206.029.838.047 1.715.047 2.64a.75.75 0 0 0 1.5 0c0-1.018-.02-1.987-.054-2.902z" fill="#C62828"/><path d="M43.818 21.558a20.184 20.184 0 0 0-.613-3.019 19.97 19.97 0 0 1-.953 2.611c.156.973.247 1.966.247 2.978v.122a.74.74 0 0 0 .593.718c.053.012.102.032.158.032a.75.75 0 0 0 .75-.75v-.122c0-.871-.074-1.726-.182-2.57z" fill="#C2185B"/><path d="M5.746 21.146a19.855 19.855 0 0 1-.945-2.584c-.018.038-.045.069-.057.111a20.106 20.106 0 0 0-.571 2.829c.24 1.917.742 3.752 1.485 5.461a22.766 22.766 0 0 1-.158-2.835c0-1.003.089-1.999.246-2.982z" fill="#C2185B"/><path d="M39.831 26.944a.75.75 0 0 0 1.493-.138 57.677 57.677 0 0 0-.387-3.204 19.862 19.862 0 0 1-1.27 1.807c.058.483.113.992.164 1.535z" fill="#C2185B"/><path d="M9.085 28.211a43.166 43.166 0 0 1-.251-2.195 20.204 20.204 0 0 1-1.579-2.097c-.001.069-.006.137-.006.205 0 1.689.177 3.009.349 4.286.108.802.208 1.564.257 2.36.466.638.967 1.245 1.503 1.822.089-1.641-.085-2.989-.273-4.381z" fill="#C2185B"/><path d="M38.081 27.197a19.79 19.79 0 0 1-1.419 1.28c.09 1.718.109 3.717.003 5.997a20.181 20.181 0 0 0 1.551-1.415 58.382 58.382 0 0 0-.135-5.862z" fill="#C2185B"/><path d="M12.544 29.38a20.125 20.125 0 0 1-1.668-1.312c.24 1.708.418 3.425-.039 5.965.424.371.864.721 1.318 1.056.516-2.4.53-4.164.389-5.709z" fill="#C2185B"/><path d="M35.142 29.609a20.21 20.21 0 0 1-1.489.905 42.913 42.913 0 0 1-.346 6.182c.56-.295 1.103-.617 1.63-.962.218-2.104.267-4.199.205-6.125z" fill="#C2185B"/><path d="M14.25 32.752c0 .414.336.748.75.748h.002a.75.75 0 0 0 .748-.752 78.964 78.964 0 0 0-.019-1.553 20.166 20.166 0 0 1-1.52-.764c.022.665.036 1.425.039 2.321z" fill="#C2185B"/><path d="M30.228 31.998a39.41 39.41 0 0 1-.713 6.214 19.946 19.946 0 0 0 1.628-.549c.35-1.995.551-4.072.603-6.221-.494.208-1.004.387-1.518.556z" fill="#C2185B"/><path d="M17.503 31.9a22.918 22.918 0 0 1-.888 5.675c.466.185.934.368 1.416.518.612-2.083.879-4.007.958-5.751a20.515 20.515 0 0 1-1.486-.442z" fill="#C2185B"/><path d="M20.648 32.697a27.41 27.41 0 0 1-1.045 5.802c.489.11.986.192 1.488.265.609-2.113.917-4.08 1.049-5.859a19.259 19.259 0 0 1-1.492-.208z" fill="#C2185B"/><path d="M27.669 34.001a.74.74 0 0 0-.793.704c-.002.026-.116 1.773-.682 4.168.54-.059 1.072-.143 1.598-.244.475-2.188.575-3.732.581-3.836a.75.75 0 0 0-.704-.792z" fill="#C2185B"/><path d="M23.771 32.988a34.679 34.679 0 0 1-.631 4.735.75.75 0 1 0 1.469.304c.368-1.78.573-3.5.675-5.092-.426.027-.85.065-1.284.065-.077 0-.152-.011-.229-.012z" fill="#C2185B"/><path d="M42.253 21.15c.376-.842.695-1.713.953-2.611a20.124 20.124 0 0 0-1.129-3.025 19.998 19.998 0 0 1-.908 1.706 18.693 18.693 0 0 1 1.084 3.93z" fill="#D81B60"/><path d="M5.667 18.153a.738.738 0 0 0-.867.409c.257.889.573 1.751.945 2.584.112-.698.253-1.39.442-2.069a.748.748 0 0 0-.52-.924z" fill="#D81B60"/><path d="M39.956 19.023c-.364.482-.748.945-1.153 1.392.179.721.557 2.424.864 4.994.457-.577.878-1.182 1.27-1.807-.317-2.124-.649-3.462-.774-3.922-.061-.224-.139-.438-.207-.657z" fill="#D81B60"/><path d="M9.205 20.424a20.01 20.01 0 0 1-1.162-1.403 16.921 16.921 0 0 0-.786 4.899c.48.735 1.008 1.433 1.579 2.097a21.6 21.6 0 0 1-.086-1.892c0-1.26.158-2.502.455-3.701z" fill="#D81B60"/><path d="M36.04 22.943c.242 1.288.498 3.137.623 5.534a20.23 20.23 0 0 0 1.419-1.28c-.18-2.387-.481-4.17-.732-5.335-.422.379-.858.739-1.31 1.081z" fill="#D81B60"/><path d="M12 24.125c0-.375.023-.744.056-1.111-.47-.351-.923-.721-1.36-1.111a13.667 13.667 0 0 0-.196 2.221c0 1.313.161 2.434.316 3.517l.06.426a19.96 19.96 0 0 0 1.668 1.312c-.062-.679-.153-1.317-.243-1.95-.155-1.078-.301-2.098-.301-3.304z" fill="#D81B60"/><path d="M33.206 24.744c.237 1.536.417 3.549.447 5.77.51-.281 1.008-.581 1.489-.905-.071-2.205-.282-4.178-.547-5.668a19.88 19.88 0 0 1-1.389.803z" fill="#D81B60"/><path d="M15.277 24.976a20.157 20.157 0 0 1-1.526-.825c.002.952.08 1.646.172 2.446.104.909.227 1.989.288 3.833a19.44 19.44 0 0 0 1.52.764c-.05-2.407-.196-3.705-.318-4.769a24.668 24.668 0 0 1-.136-1.449z" fill="#D81B60"/><path d="M31.75 28.979a39.111 39.111 0 0 0-.242-3.449c-.476.193-.957.374-1.45.531.089.84.162 1.813.194 2.96a45.303 45.303 0 0 1-.022 2.977 19.765 19.765 0 0 0 1.518-.556c.018-.812.025-1.631.002-2.463z" fill="#D81B60"/><path d="M18.688 26.393l-.015-.133a19.721 19.721 0 0 1-1.561-.504c.028.264.052.517.085.805.166 1.47.369 3.267.305 5.338.487.167.983.312 1.486.442.106-2.322-.116-4.327-.3-5.948z" fill="#D81B60"/><path d="M22.018 26.9a20.326 20.326 0 0 1-1.532-.227c.167 1.56.334 3.608.162 6.025.493.083.987.162 1.492.209.177-2.377.04-4.412-.122-6.007z" fill="#D81B60"/><path d="M27.125 30.878a.75.75 0 0 0 .75.747h.003a.75.75 0 0 0 .747-.753 39.061 39.061 0 0 0-.293-4.355c-.487.108-.983.186-1.482.258.152 1.259.268 2.711.275 4.103z" fill="#D81B60"/><path d="M25.222 26.938c-.406.025-.809.062-1.222.062-.096 0-.189-.013-.285-.014a40.02 40.02 0 0 1 .057 6.003c.076 0 .151.011.228.011.434 0 .858-.038 1.284-.065a40.6 40.6 0 0 0-.062-5.997z" fill="#D81B60"/><path d="M38.985 13.214a18.646 18.646 0 0 1 2.184 4.005c.329-.552.632-1.121.908-1.706a20.136 20.136 0 0 0-2.118-3.495c-.31.411-.633.811-.974 1.196z" fill="#EC407A"/><path d="M6.119 15.104l-.031.061c-.185.37-.004.757.366.943a.65.65 0 0 0 .295.068.86.86 0 0 0 .742-.464c.445-.883.959-1.713 1.522-2.498a19.92 19.92 0 0 1-.972-1.194 20.713 20.713 0 0 0-1.922 3.084z" fill="#EC407A"/><path d="M36.626 15.504a15.368 15.368 0 0 1 2.176 4.911c.405-.447.789-.91 1.153-1.392a16.796 16.796 0 0 0-2.205-4.525 19.52 19.52 0 0 1-1.124 1.006z" fill="#EC407A"/><path d="M11.378 15.507c-.39-.318-.76-.66-1.125-1.006a17.025 17.025 0 0 0-2.21 4.519c.367.486.754.953 1.162 1.403a15.502 15.502 0 0 1 2.173-4.916z" fill="#EC407A"/><path d="M35.217 16.559c-.414.281-.848.534-1.283.784a12.37 12.37 0 0 1 1.701 3.797c.1.363.249.971.405 1.803.452-.342.888-.702 1.31-1.08a22.67 22.67 0 0 0-.283-1.175 13.614 13.614 0 0 0-1.85-4.129z" fill="#EC407A"/><path d="M12.782 16.557a13.627 13.627 0 0 0-2.086 5.346c.437.39.89.76 1.36 1.111a12.133 12.133 0 0 1 2.005-5.675 19.326 19.326 0 0 1-1.279-.782z" fill="#EC407A"/><path d="M33.922 21.258a.75.75 0 1 0-1.42.484c.203.595.375 1.237.513 1.909.067.326.13.699.191 1.093.476-.248.936-.519 1.389-.803a17.182 17.182 0 0 0-.673-2.683z" fill="#EC407A"/><path d="M17.062 18.738c-.485-.18-.961-.374-1.427-.589a10.391 10.391 0 0 0-1.885 5.976l.001.026c.496.297 1.004.571 1.526.825a13.88 13.88 0 0 1-.027-.851c0-2.027.681-3.891 1.812-5.387z" fill="#EC407A"/><path d="M29.235 19.284c-.592.16-1.193.295-1.805.401.925.704 1.643 1.675 1.984 2.806.086.273.418 1.446.642 3.57a19.88 19.88 0 0 0 1.45-.531c-.228-1.953-.54-3.102-.664-3.496a6.925 6.925 0 0 0-1.607-2.75z" fill="#EC407A"/><path d="M24 20.25c-2.068 0-3.75 1.738-3.75 3.875 0 .448.067 1.036.151 1.781l.085.766c.506.09 1.013.176 1.532.227a97.115 97.115 0 0 0-.126-1.163c-.079-.698-.142-1.249-.142-1.612 0-1.31 1.009-2.375 2.25-2.375 1.016 0 1.634.444 2.204 1.585.155.31.435 1.688.646 3.438.499-.071.995-.15 1.482-.258-.219-1.808-.524-3.329-.786-3.852-.518-1.034-1.449-2.412-3.546-2.412z" fill="#EC407A"/><path d="M23.98 23.514a.75.75 0 0 0-.591.88c.005.024.189 1.001.326 2.591.096.002.189.015.285.015.413 0 .816-.037 1.222-.062-.143-1.674-.341-2.728-.362-2.833a.747.747 0 0 0-.88-.591z" fill="#EC407A"/><path d="M19.599 19.537c-.047-.037-.101-.053-.153-.078a1.08 1.08 0 0 0-.267-.069.741.741 0 0 0-.634.269A7.228 7.228 0 0 0 17 24.125c0 .475.051 1.034.113 1.632.512.188 1.03.357 1.561.504-.094-.837-.174-1.567-.174-2.136 0-1.302.422-2.524 1.222-3.535a.75.75 0 0 0-.123-1.053z" fill="#EC407A"/><path d="M38.985 13.214c.34-.386.664-.785.974-1.196a20.08 20.08 0 0 0-3.348-3.503c-.401.326-.817.634-1.243.929a18.572 18.572 0 0 1 3.617 3.77z" fill="#E040FB"/><path d="M12.626 9.441a19.961 19.961 0 0 1-1.239-.927 20.119 20.119 0 0 0-3.344 3.506c.31.41.632.809.972 1.194a18.459 18.459 0 0 1 3.611-3.773z" fill="#E040FB"/><path d="M36.626 15.504c.39-.318.759-.66 1.124-1.006a16.871 16.871 0 0 0-3.979-4.057c-.493.277-1.001.527-1.519.762a15.376 15.376 0 0 1 4.374 4.301z" fill="#E040FB"/><path d="M31.15 12.566a.75.75 0 1 0-.801 1.269 12.019 12.019 0 0 1 3.584 3.509c.436-.25.869-.503 1.283-.784a13.53 13.53 0 0 0-4.066-3.994z" fill="#E040FB"/><path d="M12.782 16.557c.413.28.845.533 1.279.782a12.058 12.058 0 0 1 6.148-4.709 19.994 19.994 0 0 1-2.377-.61 13.617 13.617 0 0 0-5.05 4.537z" fill="#E040FB"/><path d="M32.018 17.661C30.06 15.175 27.137 13.75 24 13.75c-3.453 0-6.506 1.742-8.365 4.399.466.215.942.41 1.427.589 1.601-2.116 4.111-3.488 6.938-3.488 2.675 0 5.167 1.217 6.839 3.339.043.054.099.09.153.129.266.194.63.208.901-.004a.741.741 0 0 0 .27-.468.74.74 0 0 0-.145-.585z" fill="#E040FB"/><path d="M24 17c-.768 0-1.523.126-2.24.373l-.142.05a.75.75 0 1 0 .513 1.409l.112-.04A5.42 5.42 0 0 1 24 18.5c1.252 0 2.456.444 3.431 1.185a19.985 19.985 0 0 0 1.805-.401A7.209 7.209 0 0 0 24 17z" fill="#E040FB"/><path d="M15.312 10.561a.752.752 0 0 0-1.047-.17l-.052.04a16.806 16.806 0 0 0-3.959 4.07c.365.346.734.688 1.125 1.006a15.317 15.317 0 0 1 3.764-3.899.737.737 0 0 0 .3-.552.752.752 0 0 0-.131-.495z" fill="#E040FB"/><path d="M26.763 4.936a.75.75 0 0 0 .601.874 18.315 18.315 0 0 1 8.005 3.635c.426-.295.842-.603 1.243-.929a19.833 19.833 0 0 0-8.975-4.181.744.744 0 0 0-.874.601z" fill="#D500F9"/><path d="M23.76 5.504a.75.75 0 0 0-.01-1.5h-.01a19.828 19.828 0 0 0-12.354 4.51c.4.325.815.632 1.239.927A18.366 18.366 0 0 1 23.76 5.504z" fill="#D500F9"/><path d="M24 7.25c-2.126 0-4.199.396-6.161 1.178a.75.75 0 0 0 .556 1.394A15.05 15.05 0 0 1 24 8.75c3.002 0 5.849.891 8.253 2.453a19.756 19.756 0 0 0 1.519-.762C30.99 8.426 27.6 7.25 24 7.25z" fill="#D500F9"/><path d="M24 12a11.9 11.9 0 0 1 3.058.397.75.75 0 0 0 .384-1.45A13.4 13.4 0 0 0 24 10.5c-2.223 0-4.317.555-6.169 1.52.773.251 1.566.455 2.377.61A11.827 11.827 0 0 1 24 12z" fill="#D500F9"/><metadata><rdf:RDF xmlns:rdf="http://www.w3.org/1999/02/22-rdf-syntax-ns#" xmlns:rdfs="http://www.w3.org/2000/01/rdf-schema#" xmlns:dc="http://purl.org/dc/elements/1.1/"><rdf:Description about="https://iconscout.com/legal#licenses" dc:title="touch,id" dc:description="touch,id" dc:publisher="Iconscout" dc:date="2017-12-15" dc:format="image/svg+xml" dc:language="en"><dc:creator><rdf:Bag><rdf:li>Icons8</rdf:li></rdf:Bag></dc:creator></rdf:Description></rdf:RDF></metadata></svg>